<mxfile host="app.diagrams.net" agent="Mozilla/5.0 (Windows NT 10.0; Win64; x64) AppleWebKit/537.36 (KHTML, like Gecko) Chrome/122.0.0.0 Safari/537.36" version="24.8.3">
  <diagram name="Page-1" id="FmNXVmiUKYO5AavIUr8t">
    <mxGraphModel dx="478" dy="246" grid="1" gridSize="10" guides="1" tooltips="1" connect="1" arrows="1" fold="1" page="1" pageScale="1" pageWidth="827" pageHeight="1169" math="0" shadow="0">
      <root>
        <mxCell id="0" />
        <mxCell id="1" parent="0" />
        <mxCell id="9YOkMzRPD7ddnAfmrJgy-1" value="" style="rounded=0;whiteSpace=wrap;html=1;" parent="1" vertex="1">
          <mxGeometry x="330" y="171" width="160" height="299" as="geometry" />
        </mxCell>
        <mxCell id="9YOkMzRPD7ddnAfmrJgy-2" value="&lt;font style=&quot;font-size: 14px;&quot;&gt;Animes&lt;/font&gt;" style="text;html=1;align=center;verticalAlign=middle;whiteSpace=wrap;rounded=0;" parent="1" vertex="1">
          <mxGeometry x="330" y="171" width="160" height="30" as="geometry" />
        </mxCell>
        <mxCell id="9YOkMzRPD7ddnAfmrJgy-3" value="" style="endArrow=none;html=1;rounded=0;exitX=1;exitY=1;exitDx=0;exitDy=0;entryX=0;entryY=1;entryDx=0;entryDy=0;" parent="1" source="9YOkMzRPD7ddnAfmrJgy-2" target="9YOkMzRPD7ddnAfmrJgy-2" edge="1">
          <mxGeometry width="50" height="50" relative="1" as="geometry">
            <mxPoint x="490" y="201" as="sourcePoint" />
            <mxPoint x="331" y="202" as="targetPoint" />
          </mxGeometry>
        </mxCell>
        <mxCell id="9YOkMzRPD7ddnAfmrJgy-4" value="&lt;font style=&quot;font-size: 11px;&quot;&gt;&lt;u&gt;id_animes INT&lt;/u&gt;&lt;/font&gt;" style="text;html=1;align=center;verticalAlign=middle;whiteSpace=wrap;rounded=0;" parent="1" vertex="1">
          <mxGeometry x="330" y="201" width="160" height="20" as="geometry" />
        </mxCell>
        <mxCell id="9YOkMzRPD7ddnAfmrJgy-5" value="&lt;font style=&quot;font-size: 11px;&quot;&gt;english_name VARCHAR(45)&lt;/font&gt;" style="text;html=1;align=center;verticalAlign=middle;whiteSpace=wrap;rounded=0;" parent="1" vertex="1">
          <mxGeometry x="330" y="221" width="160" height="20" as="geometry" />
        </mxCell>
        <mxCell id="9YOkMzRPD7ddnAfmrJgy-6" value="&lt;font style=&quot;font-size: 11px;&quot;&gt;score DECIMAL&lt;/font&gt;" style="text;html=1;align=center;verticalAlign=middle;whiteSpace=wrap;rounded=0;" parent="1" vertex="1">
          <mxGeometry x="330" y="241" width="160" height="20" as="geometry" />
        </mxCell>
        <mxCell id="9YOkMzRPD7ddnAfmrJgy-8" value="&lt;font style=&quot;font-size: 11px;&quot;&gt;id_type INT&lt;/font&gt;" style="text;html=1;align=center;verticalAlign=middle;whiteSpace=wrap;rounded=0;" parent="1" vertex="1">
          <mxGeometry x="330" y="260" width="160" height="20" as="geometry" />
        </mxCell>
        <mxCell id="9YOkMzRPD7ddnAfmrJgy-9" value="&lt;font style=&quot;font-size: 11px;&quot;&gt;episodes INT&lt;/font&gt;" style="text;html=1;align=center;verticalAlign=middle;whiteSpace=wrap;rounded=0;" parent="1" vertex="1">
          <mxGeometry x="330" y="280" width="160" height="20" as="geometry" />
        </mxCell>
        <mxCell id="9YOkMzRPD7ddnAfmrJgy-10" value="&lt;font style=&quot;font-size: 11px;&quot;&gt;start_date DATE&lt;/font&gt;" style="text;html=1;align=center;verticalAlign=middle;whiteSpace=wrap;rounded=0;" parent="1" vertex="1">
          <mxGeometry x="330" y="300" width="160" height="20" as="geometry" />
        </mxCell>
        <mxCell id="9YOkMzRPD7ddnAfmrJgy-11" value="&lt;font style=&quot;font-size: 11px;&quot;&gt;end_date DATE&lt;/font&gt;" style="text;html=1;align=center;verticalAlign=middle;whiteSpace=wrap;rounded=0;" parent="1" vertex="1">
          <mxGeometry x="330" y="320" width="160" height="20" as="geometry" />
        </mxCell>
        <mxCell id="9YOkMzRPD7ddnAfmrJgy-14" value="&lt;font style=&quot;font-size: 11px;&quot;&gt;id_source INT&lt;/font&gt;" style="text;html=1;align=center;verticalAlign=middle;whiteSpace=wrap;rounded=0;" parent="1" vertex="1">
          <mxGeometry x="330" y="365" width="160" height="20" as="geometry" />
        </mxCell>
        <mxCell id="9YOkMzRPD7ddnAfmrJgy-15" value="&lt;span style=&quot;font-size: 11px;&quot;&gt;duration_in_min INT&lt;/span&gt;" style="text;html=1;align=center;verticalAlign=middle;whiteSpace=wrap;rounded=0;" parent="1" vertex="1">
          <mxGeometry x="330" y="388" width="160" height="20" as="geometry" />
        </mxCell>
        <mxCell id="9YOkMzRPD7ddnAfmrJgy-16" value="&lt;span style=&quot;font-size: 11px;&quot;&gt;id_rating INT&lt;/span&gt;" style="text;html=1;align=center;verticalAlign=middle;whiteSpace=wrap;rounded=0;" parent="1" vertex="1">
          <mxGeometry x="330" y="408" width="160" height="20" as="geometry" />
        </mxCell>
        <mxCell id="9YOkMzRPD7ddnAfmrJgy-17" value="&lt;span style=&quot;font-size: 11px;&quot;&gt;ranked DECIMAL&lt;/span&gt;" style="text;html=1;align=center;verticalAlign=middle;whiteSpace=wrap;rounded=0;" parent="1" vertex="1">
          <mxGeometry x="330" y="428" width="160" height="20" as="geometry" />
        </mxCell>
        <mxCell id="9YOkMzRPD7ddnAfmrJgy-18" value="&lt;span style=&quot;font-size: 11px;&quot;&gt;popularity INT&lt;/span&gt;" style="text;html=1;align=center;verticalAlign=middle;whiteSpace=wrap;rounded=0;" parent="1" vertex="1">
          <mxGeometry x="330" y="448" width="160" height="20" as="geometry" />
        </mxCell>
        <mxCell id="9YOkMzRPD7ddnAfmrJgy-21" value="" style="rounded=0;whiteSpace=wrap;html=1;" parent="1" vertex="1">
          <mxGeometry x="53" y="79" width="160" height="90" as="geometry" />
        </mxCell>
        <mxCell id="9YOkMzRPD7ddnAfmrJgy-22" value="&lt;font style=&quot;font-size: 14px;&quot;&gt;Genres&lt;/font&gt;" style="text;html=1;align=center;verticalAlign=middle;whiteSpace=wrap;rounded=0;" parent="1" vertex="1">
          <mxGeometry x="53" y="79" width="160" height="30" as="geometry" />
        </mxCell>
        <mxCell id="9YOkMzRPD7ddnAfmrJgy-23" value="" style="endArrow=none;html=1;rounded=0;entryX=1;entryY=1;entryDx=0;entryDy=0;exitX=0;exitY=1;exitDx=0;exitDy=0;" parent="1" source="9YOkMzRPD7ddnAfmrJgy-22" target="9YOkMzRPD7ddnAfmrJgy-22" edge="1">
          <mxGeometry width="50" height="50" relative="1" as="geometry">
            <mxPoint x="63" y="110" as="sourcePoint" />
            <mxPoint x="193" y="99" as="targetPoint" />
          </mxGeometry>
        </mxCell>
        <mxCell id="9YOkMzRPD7ddnAfmrJgy-24" value="&lt;font style=&quot;font-size: 11px;&quot;&gt;&lt;u&gt;id_genre INT&lt;/u&gt;&lt;/font&gt;" style="text;html=1;align=center;verticalAlign=middle;whiteSpace=wrap;rounded=0;" parent="1" vertex="1">
          <mxGeometry x="53" y="109" width="160" height="20" as="geometry" />
        </mxCell>
        <mxCell id="9YOkMzRPD7ddnAfmrJgy-25" value="&lt;font style=&quot;font-size: 11px;&quot;&gt;name_genre VARCHAR(50)&lt;/font&gt;" style="text;html=1;align=center;verticalAlign=middle;whiteSpace=wrap;rounded=0;" parent="1" vertex="1">
          <mxGeometry x="53" y="129" width="160" height="20" as="geometry" />
        </mxCell>
        <mxCell id="9YOkMzRPD7ddnAfmrJgy-26" value="" style="rounded=0;whiteSpace=wrap;html=1;" parent="1" vertex="1">
          <mxGeometry x="61" y="337" width="160" height="90" as="geometry" />
        </mxCell>
        <mxCell id="9YOkMzRPD7ddnAfmrJgy-27" value="&lt;span style=&quot;font-size: 14px;&quot;&gt;Types&lt;/span&gt;" style="text;html=1;align=center;verticalAlign=middle;whiteSpace=wrap;rounded=0;" parent="1" vertex="1">
          <mxGeometry x="61" y="337" width="160" height="30" as="geometry" />
        </mxCell>
        <mxCell id="9YOkMzRPD7ddnAfmrJgy-28" value="" style="endArrow=none;html=1;rounded=0;entryX=1;entryY=1;entryDx=0;entryDy=0;exitX=0;exitY=1;exitDx=0;exitDy=0;" parent="1" source="9YOkMzRPD7ddnAfmrJgy-27" target="9YOkMzRPD7ddnAfmrJgy-27" edge="1">
          <mxGeometry width="50" height="50" relative="1" as="geometry">
            <mxPoint x="71" y="368" as="sourcePoint" />
            <mxPoint x="201" y="357" as="targetPoint" />
          </mxGeometry>
        </mxCell>
        <mxCell id="9YOkMzRPD7ddnAfmrJgy-29" value="&lt;font style=&quot;font-size: 11px;&quot;&gt;&lt;u&gt;id_type INT&lt;/u&gt;&lt;/font&gt;" style="text;html=1;align=center;verticalAlign=middle;whiteSpace=wrap;rounded=0;" parent="1" vertex="1">
          <mxGeometry x="61" y="367" width="160" height="20" as="geometry" />
        </mxCell>
        <mxCell id="9YOkMzRPD7ddnAfmrJgy-30" value="&lt;font style=&quot;font-size: 11px;&quot;&gt;name_type VARCHAR(50)&lt;/font&gt;" style="text;html=1;align=center;verticalAlign=middle;whiteSpace=wrap;rounded=0;" parent="1" vertex="1">
          <mxGeometry x="61" y="387" width="160" height="20" as="geometry" />
        </mxCell>
        <mxCell id="9YOkMzRPD7ddnAfmrJgy-31" value="" style="rounded=0;whiteSpace=wrap;html=1;" parent="1" vertex="1">
          <mxGeometry x="569" y="19" width="160" height="90" as="geometry" />
        </mxCell>
        <mxCell id="9YOkMzRPD7ddnAfmrJgy-32" value="&lt;span style=&quot;font-size: 14px;&quot;&gt;Producers&lt;/span&gt;" style="text;html=1;align=center;verticalAlign=middle;whiteSpace=wrap;rounded=0;" parent="1" vertex="1">
          <mxGeometry x="569" y="19" width="160" height="30" as="geometry" />
        </mxCell>
        <mxCell id="9YOkMzRPD7ddnAfmrJgy-33" value="" style="endArrow=none;html=1;rounded=0;entryX=1;entryY=1;entryDx=0;entryDy=0;exitX=0;exitY=1;exitDx=0;exitDy=0;" parent="1" source="9YOkMzRPD7ddnAfmrJgy-32" target="9YOkMzRPD7ddnAfmrJgy-32" edge="1">
          <mxGeometry width="50" height="50" relative="1" as="geometry">
            <mxPoint x="579" y="50" as="sourcePoint" />
            <mxPoint x="709" y="39" as="targetPoint" />
          </mxGeometry>
        </mxCell>
        <mxCell id="9YOkMzRPD7ddnAfmrJgy-34" value="&lt;font style=&quot;font-size: 11px;&quot;&gt;&lt;u&gt;id_producer INT&lt;/u&gt;&lt;/font&gt;" style="text;html=1;align=center;verticalAlign=middle;whiteSpace=wrap;rounded=0;" parent="1" vertex="1">
          <mxGeometry x="569" y="49" width="160" height="20" as="geometry" />
        </mxCell>
        <mxCell id="9YOkMzRPD7ddnAfmrJgy-35" value="&lt;font style=&quot;font-size: 11px;&quot;&gt;name_producer VARCHAR(50)&lt;/font&gt;" style="text;html=1;align=center;verticalAlign=middle;whiteSpace=wrap;rounded=0;" parent="1" vertex="1">
          <mxGeometry x="569" y="69" width="160" height="20" as="geometry" />
        </mxCell>
        <mxCell id="9YOkMzRPD7ddnAfmrJgy-36" value="" style="rounded=0;whiteSpace=wrap;html=1;" parent="1" vertex="1">
          <mxGeometry x="75" y="469" width="160" height="90" as="geometry" />
        </mxCell>
        <mxCell id="9YOkMzRPD7ddnAfmrJgy-37" value="&lt;font style=&quot;font-size: 14px;&quot;&gt;Studios&lt;/font&gt;" style="text;html=1;align=center;verticalAlign=middle;whiteSpace=wrap;rounded=0;" parent="1" vertex="1">
          <mxGeometry x="75" y="469" width="160" height="30" as="geometry" />
        </mxCell>
        <mxCell id="9YOkMzRPD7ddnAfmrJgy-38" value="" style="endArrow=none;html=1;rounded=0;entryX=1;entryY=1;entryDx=0;entryDy=0;exitX=0;exitY=1;exitDx=0;exitDy=0;" parent="1" source="9YOkMzRPD7ddnAfmrJgy-37" target="9YOkMzRPD7ddnAfmrJgy-37" edge="1">
          <mxGeometry width="50" height="50" relative="1" as="geometry">
            <mxPoint x="85" y="500" as="sourcePoint" />
            <mxPoint x="215" y="489" as="targetPoint" />
          </mxGeometry>
        </mxCell>
        <mxCell id="9YOkMzRPD7ddnAfmrJgy-39" value="&lt;font style=&quot;font-size: 11px;&quot;&gt;&lt;u&gt;id_studio INT&lt;/u&gt;&lt;/font&gt;" style="text;html=1;align=center;verticalAlign=middle;whiteSpace=wrap;rounded=0;" parent="1" vertex="1">
          <mxGeometry x="75" y="499" width="160" height="20" as="geometry" />
        </mxCell>
        <mxCell id="9YOkMzRPD7ddnAfmrJgy-40" value="&lt;font style=&quot;font-size: 11px;&quot;&gt;name_studio VARCHAR(50)&lt;/font&gt;" style="text;html=1;align=center;verticalAlign=middle;whiteSpace=wrap;rounded=0;" parent="1" vertex="1">
          <mxGeometry x="75" y="519" width="160" height="20" as="geometry" />
        </mxCell>
        <mxCell id="9YOkMzRPD7ddnAfmrJgy-41" value="" style="rounded=0;whiteSpace=wrap;html=1;" parent="1" vertex="1">
          <mxGeometry x="626" y="259" width="160" height="90" as="geometry" />
        </mxCell>
        <mxCell id="9YOkMzRPD7ddnAfmrJgy-42" value="&lt;font style=&quot;font-size: 14px;&quot;&gt;Sources&lt;/font&gt;" style="text;html=1;align=center;verticalAlign=middle;whiteSpace=wrap;rounded=0;" parent="1" vertex="1">
          <mxGeometry x="626" y="259" width="160" height="30" as="geometry" />
        </mxCell>
        <mxCell id="9YOkMzRPD7ddnAfmrJgy-43" value="" style="endArrow=none;html=1;rounded=0;entryX=1;entryY=1;entryDx=0;entryDy=0;exitX=0;exitY=1;exitDx=0;exitDy=0;" parent="1" source="9YOkMzRPD7ddnAfmrJgy-42" target="9YOkMzRPD7ddnAfmrJgy-42" edge="1">
          <mxGeometry width="50" height="50" relative="1" as="geometry">
            <mxPoint x="636" y="290" as="sourcePoint" />
            <mxPoint x="766" y="279" as="targetPoint" />
          </mxGeometry>
        </mxCell>
        <mxCell id="9YOkMzRPD7ddnAfmrJgy-44" value="&lt;font style=&quot;font-size: 11px;&quot;&gt;&lt;u&gt;id_source INT&lt;/u&gt;&lt;/font&gt;" style="text;html=1;align=center;verticalAlign=middle;whiteSpace=wrap;rounded=0;" parent="1" vertex="1">
          <mxGeometry x="626" y="289" width="160" height="20" as="geometry" />
        </mxCell>
        <mxCell id="9YOkMzRPD7ddnAfmrJgy-45" value="&lt;font style=&quot;font-size: 11px;&quot;&gt;name_source VARCHAR(50)&lt;/font&gt;" style="text;html=1;align=center;verticalAlign=middle;whiteSpace=wrap;rounded=0;" parent="1" vertex="1">
          <mxGeometry x="626" y="309" width="160" height="20" as="geometry" />
        </mxCell>
        <mxCell id="9YOkMzRPD7ddnAfmrJgy-46" value="" style="rounded=0;whiteSpace=wrap;html=1;" parent="1" vertex="1">
          <mxGeometry x="600" y="419" width="160" height="90" as="geometry" />
        </mxCell>
        <mxCell id="9YOkMzRPD7ddnAfmrJgy-47" value="&lt;font style=&quot;font-size: 14px;&quot;&gt;Rating&lt;/font&gt;" style="text;html=1;align=center;verticalAlign=middle;whiteSpace=wrap;rounded=0;" parent="1" vertex="1">
          <mxGeometry x="600" y="419" width="160" height="30" as="geometry" />
        </mxCell>
        <mxCell id="9YOkMzRPD7ddnAfmrJgy-48" value="" style="endArrow=none;html=1;rounded=0;entryX=1;entryY=1;entryDx=0;entryDy=0;exitX=0;exitY=1;exitDx=0;exitDy=0;" parent="1" source="9YOkMzRPD7ddnAfmrJgy-47" target="9YOkMzRPD7ddnAfmrJgy-47" edge="1">
          <mxGeometry width="50" height="50" relative="1" as="geometry">
            <mxPoint x="610" y="450" as="sourcePoint" />
            <mxPoint x="740" y="439" as="targetPoint" />
          </mxGeometry>
        </mxCell>
        <mxCell id="9YOkMzRPD7ddnAfmrJgy-49" value="&lt;font style=&quot;font-size: 11px;&quot;&gt;&lt;u&gt;id_rating INT&lt;/u&gt;&lt;/font&gt;" style="text;html=1;align=center;verticalAlign=middle;whiteSpace=wrap;rounded=0;" parent="1" vertex="1">
          <mxGeometry x="600" y="449" width="160" height="20" as="geometry" />
        </mxCell>
        <mxCell id="9YOkMzRPD7ddnAfmrJgy-50" value="&lt;font style=&quot;font-size: 11px;&quot;&gt;name_rating VARCHAR(50)&lt;/font&gt;" style="text;html=1;align=center;verticalAlign=middle;whiteSpace=wrap;rounded=0;" parent="1" vertex="1">
          <mxGeometry x="600" y="469" width="160" height="20" as="geometry" />
        </mxCell>
        <mxCell id="9YOkMzRPD7ddnAfmrJgy-59" value="N" style="text;html=1;align=center;verticalAlign=middle;whiteSpace=wrap;rounded=0;" parent="1" vertex="1">
          <mxGeometry x="215" y="94" width="19" height="30" as="geometry" />
        </mxCell>
        <mxCell id="9YOkMzRPD7ddnAfmrJgy-60" value="N" style="text;html=1;align=center;verticalAlign=middle;whiteSpace=wrap;rounded=0;" parent="1" vertex="1">
          <mxGeometry x="222" y="349" width="19" height="30" as="geometry" />
        </mxCell>
        <mxCell id="9YOkMzRPD7ddnAfmrJgy-63" value="N" style="text;html=1;align=center;verticalAlign=middle;whiteSpace=wrap;rounded=0;" parent="1" vertex="1">
          <mxGeometry x="607" y="276" width="19" height="30" as="geometry" />
        </mxCell>
        <mxCell id="9YOkMzRPD7ddnAfmrJgy-64" value="N" style="text;html=1;align=center;verticalAlign=middle;whiteSpace=wrap;rounded=0;" parent="1" vertex="1">
          <mxGeometry x="581" y="435" width="19" height="30" as="geometry" />
        </mxCell>
        <mxCell id="9YOkMzRPD7ddnAfmrJgy-65" value="N" style="text;html=1;align=center;verticalAlign=middle;whiteSpace=wrap;rounded=0;" parent="1" vertex="1">
          <mxGeometry x="305" y="186" width="19" height="30" as="geometry" />
        </mxCell>
        <mxCell id="9YOkMzRPD7ddnAfmrJgy-66" value="1" style="text;html=1;align=center;verticalAlign=middle;whiteSpace=wrap;rounded=0;" parent="1" vertex="1">
          <mxGeometry x="311" y="245" width="19" height="30" as="geometry" />
        </mxCell>
        <mxCell id="9YOkMzRPD7ddnAfmrJgy-68" value="N" style="text;html=1;align=center;verticalAlign=middle;whiteSpace=wrap;rounded=0;" parent="1" vertex="1">
          <mxGeometry x="490" y="364" width="19" height="30" as="geometry" />
        </mxCell>
        <mxCell id="9YOkMzRPD7ddnAfmrJgy-69" value="N" style="text;html=1;align=center;verticalAlign=middle;whiteSpace=wrap;rounded=0;" parent="1" vertex="1">
          <mxGeometry x="500" y="389" width="19" height="30" as="geometry" />
        </mxCell>
        <mxCell id="aycwFpnfC6f0KNS7ArPK-1" value="" style="rounded=0;whiteSpace=wrap;html=1;" vertex="1" parent="1">
          <mxGeometry x="53" y="209" width="160" height="102" as="geometry" />
        </mxCell>
        <mxCell id="aycwFpnfC6f0KNS7ArPK-2" value="&lt;font style=&quot;font-size: 14px;&quot;&gt;Genres_animes&lt;/font&gt;" style="text;html=1;align=center;verticalAlign=middle;whiteSpace=wrap;rounded=0;" vertex="1" parent="1">
          <mxGeometry x="53" y="209" width="160" height="30" as="geometry" />
        </mxCell>
        <mxCell id="aycwFpnfC6f0KNS7ArPK-3" value="" style="endArrow=none;html=1;rounded=0;entryX=1;entryY=1;entryDx=0;entryDy=0;exitX=0;exitY=1;exitDx=0;exitDy=0;" edge="1" parent="1" source="aycwFpnfC6f0KNS7ArPK-2" target="aycwFpnfC6f0KNS7ArPK-2">
          <mxGeometry width="50" height="50" relative="1" as="geometry">
            <mxPoint x="63" y="240" as="sourcePoint" />
            <mxPoint x="193" y="229" as="targetPoint" />
          </mxGeometry>
        </mxCell>
        <mxCell id="aycwFpnfC6f0KNS7ArPK-4" value="&lt;font style=&quot;font-size: 11px;&quot;&gt;&lt;u&gt;id_genre_animes INT&lt;/u&gt;&lt;/font&gt;" style="text;html=1;align=center;verticalAlign=middle;whiteSpace=wrap;rounded=0;" vertex="1" parent="1">
          <mxGeometry x="53" y="239" width="160" height="20" as="geometry" />
        </mxCell>
        <mxCell id="aycwFpnfC6f0KNS7ArPK-5" value="&lt;font style=&quot;font-size: 11px;&quot;&gt;id_genre INT&lt;/font&gt;" style="text;html=1;align=center;verticalAlign=middle;whiteSpace=wrap;rounded=0;" vertex="1" parent="1">
          <mxGeometry x="53" y="259" width="160" height="20" as="geometry" />
        </mxCell>
        <mxCell id="aycwFpnfC6f0KNS7ArPK-7" value="&lt;font style=&quot;font-size: 11px;&quot;&gt;id_anime INT&lt;/font&gt;" style="text;html=1;align=center;verticalAlign=middle;whiteSpace=wrap;rounded=0;" vertex="1" parent="1">
          <mxGeometry x="53" y="279" width="160" height="20" as="geometry" />
        </mxCell>
        <mxCell id="aycwFpnfC6f0KNS7ArPK-8" value="" style="endArrow=classic;html=1;rounded=0;entryX=1;entryY=0.5;entryDx=0;entryDy=0;strokeColor=#050505;" edge="1" parent="1" target="9YOkMzRPD7ddnAfmrJgy-24">
          <mxGeometry width="50" height="50" relative="1" as="geometry">
            <mxPoint x="240" y="119" as="sourcePoint" />
            <mxPoint x="320" y="131" as="targetPoint" />
          </mxGeometry>
        </mxCell>
        <mxCell id="aycwFpnfC6f0KNS7ArPK-9" value="" style="endArrow=none;html=1;rounded=0;" edge="1" parent="1">
          <mxGeometry width="50" height="50" relative="1" as="geometry">
            <mxPoint x="240" y="271" as="sourcePoint" />
            <mxPoint x="240" y="120" as="targetPoint" />
          </mxGeometry>
        </mxCell>
        <mxCell id="aycwFpnfC6f0KNS7ArPK-10" value="" style="endArrow=classic;html=1;rounded=0;entryX=1;entryY=0.5;entryDx=0;entryDy=0;strokeColor=#050505;" edge="1" parent="1">
          <mxGeometry width="50" height="50" relative="1" as="geometry">
            <mxPoint x="240" y="270" as="sourcePoint" />
            <mxPoint x="213" y="270" as="targetPoint" />
          </mxGeometry>
        </mxCell>
        <mxCell id="aycwFpnfC6f0KNS7ArPK-11" value="" style="endArrow=classic;html=1;rounded=0;entryX=1;entryY=0.5;entryDx=0;entryDy=0;strokeColor=#050505;" edge="1" parent="1">
          <mxGeometry width="50" height="50" relative="1" as="geometry">
            <mxPoint x="270" y="291" as="sourcePoint" />
            <mxPoint x="213" y="291" as="targetPoint" />
          </mxGeometry>
        </mxCell>
        <mxCell id="aycwFpnfC6f0KNS7ArPK-12" value="" style="endArrow=none;html=1;rounded=0;" edge="1" parent="1">
          <mxGeometry width="50" height="50" relative="1" as="geometry">
            <mxPoint x="270" y="292" as="sourcePoint" />
            <mxPoint x="270" y="211" as="targetPoint" />
          </mxGeometry>
        </mxCell>
        <mxCell id="aycwFpnfC6f0KNS7ArPK-13" value="" style="endArrow=classic;html=1;rounded=0;entryX=0;entryY=0;entryDx=0;entryDy=0;strokeColor=#050505;" edge="1" parent="1">
          <mxGeometry width="50" height="50" relative="1" as="geometry">
            <mxPoint x="270" y="210.85" as="sourcePoint" />
            <mxPoint x="330.00000000000034" y="210.71" as="targetPoint" />
          </mxGeometry>
        </mxCell>
        <mxCell id="aycwFpnfC6f0KNS7ArPK-14" value="" style="endArrow=classic;html=1;rounded=0;entryX=1;entryY=0.5;entryDx=0;entryDy=0;strokeColor=#050505;" edge="1" parent="1">
          <mxGeometry width="50" height="50" relative="1" as="geometry">
            <mxPoint x="290" y="380" as="sourcePoint" />
            <mxPoint x="221" y="380" as="targetPoint" />
          </mxGeometry>
        </mxCell>
        <mxCell id="aycwFpnfC6f0KNS7ArPK-15" value="" style="endArrow=none;html=1;rounded=0;" edge="1" parent="1">
          <mxGeometry width="50" height="50" relative="1" as="geometry">
            <mxPoint x="290" y="379" as="sourcePoint" />
            <mxPoint x="290" y="270" as="targetPoint" />
          </mxGeometry>
        </mxCell>
        <mxCell id="aycwFpnfC6f0KNS7ArPK-16" value="" style="endArrow=classic;html=1;rounded=0;entryX=0;entryY=0;entryDx=0;entryDy=0;strokeColor=#050505;" edge="1" parent="1">
          <mxGeometry width="50" height="50" relative="1" as="geometry">
            <mxPoint x="290" y="270" as="sourcePoint" />
            <mxPoint x="330.00000000000034" y="269.89" as="targetPoint" />
          </mxGeometry>
        </mxCell>
        <mxCell id="aycwFpnfC6f0KNS7ArPK-17" value="1" style="text;html=1;align=center;verticalAlign=middle;whiteSpace=wrap;rounded=0;" vertex="1" parent="1">
          <mxGeometry x="221" y="269" width="19" height="30" as="geometry" />
        </mxCell>
        <mxCell id="aycwFpnfC6f0KNS7ArPK-19" value="1" style="text;html=1;align=center;verticalAlign=middle;whiteSpace=wrap;rounded=0;" vertex="1" parent="1">
          <mxGeometry x="215" y="246" width="19" height="30" as="geometry" />
        </mxCell>
        <mxCell id="aycwFpnfC6f0KNS7ArPK-20" value="" style="endArrow=classic;html=1;rounded=0;entryX=1;entryY=0.5;entryDx=0;entryDy=0;strokeColor=#050505;" edge="1" parent="1">
          <mxGeometry width="50" height="50" relative="1" as="geometry">
            <mxPoint x="310" y="509" as="sourcePoint" />
            <mxPoint x="235" y="508.8" as="targetPoint" />
          </mxGeometry>
        </mxCell>
        <mxCell id="aycwFpnfC6f0KNS7ArPK-21" value="" style="endArrow=none;html=1;rounded=0;" edge="1" parent="1">
          <mxGeometry width="50" height="50" relative="1" as="geometry">
            <mxPoint x="310" y="510" as="sourcePoint" />
            <mxPoint x="310" y="349" as="targetPoint" />
          </mxGeometry>
        </mxCell>
        <mxCell id="aycwFpnfC6f0KNS7ArPK-22" value="&lt;font style=&quot;font-size: 11px;&quot;&gt;id_studios INT&lt;/font&gt;" style="text;html=1;align=center;verticalAlign=middle;whiteSpace=wrap;rounded=0;" vertex="1" parent="1">
          <mxGeometry x="330" y="343" width="160" height="20" as="geometry" />
        </mxCell>
        <mxCell id="aycwFpnfC6f0KNS7ArPK-23" value="" style="endArrow=classic;html=1;rounded=0;entryX=0;entryY=0;entryDx=0;entryDy=0;strokeColor=#050505;" edge="1" parent="1">
          <mxGeometry width="50" height="50" relative="1" as="geometry">
            <mxPoint x="310" y="349" as="sourcePoint" />
            <mxPoint x="330.00000000000034" y="349" as="targetPoint" />
          </mxGeometry>
        </mxCell>
        <mxCell id="aycwFpnfC6f0KNS7ArPK-24" value="" style="rounded=0;whiteSpace=wrap;html=1;" vertex="1" parent="1">
          <mxGeometry x="570" y="136" width="160" height="94" as="geometry" />
        </mxCell>
        <mxCell id="aycwFpnfC6f0KNS7ArPK-25" value="&lt;span style=&quot;font-size: 14px;&quot;&gt;Producers_animes&lt;/span&gt;" style="text;html=1;align=center;verticalAlign=middle;whiteSpace=wrap;rounded=0;" vertex="1" parent="1">
          <mxGeometry x="570" y="136" width="160" height="30" as="geometry" />
        </mxCell>
        <mxCell id="aycwFpnfC6f0KNS7ArPK-26" value="" style="endArrow=none;html=1;rounded=0;entryX=1;entryY=1;entryDx=0;entryDy=0;exitX=0;exitY=1;exitDx=0;exitDy=0;" edge="1" parent="1" source="aycwFpnfC6f0KNS7ArPK-25" target="aycwFpnfC6f0KNS7ArPK-25">
          <mxGeometry width="50" height="50" relative="1" as="geometry">
            <mxPoint x="580" y="167" as="sourcePoint" />
            <mxPoint x="710" y="156" as="targetPoint" />
          </mxGeometry>
        </mxCell>
        <mxCell id="aycwFpnfC6f0KNS7ArPK-27" value="&lt;font style=&quot;font-size: 11px;&quot;&gt;&lt;u&gt;id_producer_animes INT&lt;/u&gt;&lt;/font&gt;" style="text;html=1;align=center;verticalAlign=middle;whiteSpace=wrap;rounded=0;" vertex="1" parent="1">
          <mxGeometry x="570" y="166" width="160" height="20" as="geometry" />
        </mxCell>
        <mxCell id="aycwFpnfC6f0KNS7ArPK-28" value="&lt;font style=&quot;font-size: 11px;&quot;&gt;id_producers INT&lt;/font&gt;" style="text;html=1;align=center;verticalAlign=middle;whiteSpace=wrap;rounded=0;" vertex="1" parent="1">
          <mxGeometry x="570" y="186" width="160" height="20" as="geometry" />
        </mxCell>
        <mxCell id="aycwFpnfC6f0KNS7ArPK-29" value="&lt;font style=&quot;font-size: 11px;&quot;&gt;id_anime INT&lt;/font&gt;" style="text;html=1;align=center;verticalAlign=middle;whiteSpace=wrap;rounded=0;" vertex="1" parent="1">
          <mxGeometry x="571" y="205" width="160" height="20" as="geometry" />
        </mxCell>
        <mxCell id="aycwFpnfC6f0KNS7ArPK-30" value="" style="endArrow=none;html=1;rounded=0;" edge="1" parent="1">
          <mxGeometry width="50" height="50" relative="1" as="geometry">
            <mxPoint x="550" y="200" as="sourcePoint" />
            <mxPoint x="550" y="58" as="targetPoint" />
          </mxGeometry>
        </mxCell>
        <mxCell id="aycwFpnfC6f0KNS7ArPK-31" value="" style="endArrow=classic;html=1;rounded=0;entryX=0;entryY=0;entryDx=0;entryDy=0;strokeColor=#050505;" edge="1" parent="1">
          <mxGeometry width="50" height="50" relative="1" as="geometry">
            <mxPoint x="550" y="59" as="sourcePoint" />
            <mxPoint x="569.0000000000003" y="58.83" as="targetPoint" />
          </mxGeometry>
        </mxCell>
        <mxCell id="aycwFpnfC6f0KNS7ArPK-32" value="" style="endArrow=classic;html=1;rounded=0;entryX=0;entryY=0;entryDx=0;entryDy=0;strokeColor=#050505;" edge="1" parent="1">
          <mxGeometry width="50" height="50" relative="1" as="geometry">
            <mxPoint x="550" y="199.84" as="sourcePoint" />
            <mxPoint x="569.0000000000003" y="199.67000000000002" as="targetPoint" />
          </mxGeometry>
        </mxCell>
        <mxCell id="aycwFpnfC6f0KNS7ArPK-34" value="" style="endArrow=classic;html=1;rounded=0;exitX=1;exitY=0.75;exitDx=0;exitDy=0;" edge="1" parent="1">
          <mxGeometry width="50" height="50" relative="1" as="geometry">
            <mxPoint x="490" y="214" as="sourcePoint" />
            <mxPoint x="569" y="214" as="targetPoint" />
          </mxGeometry>
        </mxCell>
        <mxCell id="aycwFpnfC6f0KNS7ArPK-35" value="" style="endArrow=classic;html=1;rounded=0;entryX=1;entryY=0.5;entryDx=0;entryDy=0;strokeColor=#050505;" edge="1" parent="1">
          <mxGeometry width="50" height="50" relative="1" as="geometry">
            <mxPoint x="547" y="213.82999999999998" as="sourcePoint" />
            <mxPoint x="490" y="213.82999999999998" as="targetPoint" />
          </mxGeometry>
        </mxCell>
      </root>
    </mxGraphModel>
  </diagram>
</mxfile>
